<?xml version="1.0" standalone="no"?>
<!DOCTYPE svg PUBLIC "-//W3C//DTD SVG 20010904//EN"
 "http://www.w3.org/TR/2001/REC-SVG-20010904/DTD/svg10.dtd">
<svg version="1.0" xmlns="http://www.w3.org/2000/svg"
 width="500.000000pt" height="500.000000pt" viewBox="0 0 500.000000 500.000000"
 preserveAspectRatio="xMidYMid meet">
<metadata>
Created by potrace 1.11, written by Peter Selinger 2001-2013
</metadata>
<g transform="translate(0.000000,500.000000) scale(0.100000,-0.100000)"
fill="#000000" stroke="none">
<path d="M1875 4845 l-1 -155 156 -2 155 -3 2 -167 1 -166 -71 -12 c-74 -12
-164 -34 -277 -68 -378 -115 -768 -376 -1022 -686 -27 -34 -57 -70 -66 -81
-97 -119 -263 -429 -320 -600 -75 -222 -116 -446 -117 -638 l0 -79 2165 1
c1191 0 2175 0 2187 1 22 0 22 2 18 102 -3 94 -6 125 -20 213 -3 17 -7 48 -11
70 -9 62 -50 222 -79 305 -14 41 -30 90 -36 108 -26 84 -222 440 -260 472 -3
3 -10 12 -15 21 -21 37 -143 179 -223 260 -39 39 -152 138 -217 190 -117 93
-384 240 -544 300 -114 42 -190 64 -325 95 -26 6 -128 24 -137 24 -4 0 -6 75
-5 168 l2 167 25 2 c14 0 84 1 155 2 l130 1 0 155 0 155 -625 0 -625 0 0 -155z
m832 -1108 c5 -3 27 -8 49 -11 152 -19 351 -90 520 -186 208 -119 408 -310
537 -510 35 -56 98 -171 109 -201 6 -16 -103 -17 -1422 -17 l-1429 0 17 37
c116 252 335 502 576 656 197 126 413 200 696 238 39 5 337 0 347 -6z"/>
<path d="M405 1561 c-6 -6 55 -171 102 -276 236 -527 698 -955 1243 -1154 80
-29 201 -65 251 -74 13 -3 42 -9 64 -15 22 -6 65 -14 95 -17 30 -4 64 -9 75
-12 52 -12 362 -14 465 -4 122 12 132 13 250 37 310 63 614 202 875 402 86 66
215 180 215 192 0 9 -429 440 -439 440 -3 0 -32 -24 -65 -52 -202 -182 -491
-327 -741 -372 -44 -8 -102 -18 -130 -21 -54 -7 -285 -8 -325 -1 -14 3 -47 7
-75 11 -27 3 -93 17 -146 30 -431 108 -798 401 -1008 804 -23 45 -45 81 -49
82 -24 3 -654 3 -657 0z"/>
</g>
</svg>
