<?xml version="1.0" encoding="utf-8"?>
<!-- Generator: Adobe Illustrator 21.0.0, SVG Export Plug-In . SVG Version: 6.00 Build 0)  -->
<svg version="1.1" id="Layer_1" xmlns="http://www.w3.org/2000/svg" xmlns:xlink="http://www.w3.org/1999/xlink" x="0px" y="0px"
	 viewBox="0 0 268 50.6" style="enable-background:new 0 0 268 50.6;" xml:space="preserve">
<style type="text/css">
	.st0{fill:none;}
	.st1{fill:#FFFFFF;}
	.st2{fill:#10BDC7;}
</style>
<path class="st0" d="M190.5,30.1c-1.1-0.7-2.5-1.1-4.1-1.4c-1.6-0.3-3.4-0.4-5.3-0.4h-9.2v17.5c0.6,0.1,1.6,0.2,2.9,0.3
	c1.3,0.1,2.6,0.2,3.9,0.2c2,0,3.9-0.1,5.7-0.4c1.9-0.3,3.5-0.7,4.9-1.4s2.5-1.6,3.4-2.8c0.9-1.2,1.3-2.7,1.3-4.6
	c0-1.7-0.3-3.1-0.9-4.3C192.5,31.7,191.6,30.8,190.5,30.1z"/>
<path class="st0" d="M220.2,19.5c-1.5,0-2.8,0.3-4,0.9c-1.2,0.6-2.2,1.4-3.1,2.4c-0.9,1-1.6,2.2-2,3.5c-0.5,1.3-0.8,2.7-0.9,4.2
	h18.9c-0.1-3.5-0.9-6.1-2.4-8.1C225.1,20.5,223,19.5,220.2,19.5z"/>
<path class="st0" d="M184.8,24.3c1.4-0.2,2.6-0.7,3.7-1.3c1-0.6,1.9-1.4,2.5-2.5c0.6-1,0.9-2.4,0.9-4c0-1.4-0.3-2.7-1-3.7
	c-0.6-1-1.5-1.8-2.7-2.5c-1.2-0.6-2.6-1.1-4.2-1.4c-1.6-0.3-3.4-0.4-5.4-0.4c-1.6,0-2.9,0-4,0.1c-1.1,0.1-2,0.2-2.7,0.3v15.6h8.4
	C181.9,24.6,183.4,24.5,184.8,24.3z"/>
<path class="st1" d="M29.4,45.7c-0.5,0.2-1.5,0.4-3,0.7c-1.5,0.2-3.3,0.4-5.5,0.4c-2.7,0-5.1-0.4-7.1-1.3s-3.8-2.2-5.2-3.9
	c-1.4-1.7-2.4-3.7-3.1-6.1c-0.7-2.4-1-5-1-8c0-3.2,0.4-5.9,1.2-8.3c0.8-2.4,2-4.4,3.4-6c1.5-1.6,3.2-2.8,5.1-3.6
	c2-0.8,4.1-1.2,6.3-1.2c2.4,0,4.6,0.3,6.7,0.8c2,0.5,3.7,1.2,4.9,2.1l1.5-3.7c-1-0.6-2.5-1.3-4.7-2c-2.1-0.7-4.8-1.1-8.1-1.1
	c-2.9,0-5.5,0.5-8.1,1.5c-2.5,1-4.7,2.5-6.6,4.4c-1.9,1.9-3.4,4.4-4.5,7.2C0.6,20.4,0,23.7,0,27.5s0.5,7,1.5,9.9
	c1,2.9,2.4,5.3,4.3,7.2c1.8,1.9,4,3.4,6.4,4.4c2.5,1,5.2,1.5,8.1,1.5c3.5,0,6.4-0.3,8.7-0.8c2.4-0.5,4-1,4.8-1.3V28.7h-4.4V45.7z"/>
<path class="st1" d="M64.9,45.6c-0.4,0.2-1.3,0.4-2.8,0.6c-1.5,0.2-3.2,0.3-5.1,0.3c-1.8,0-3.2-0.2-4.4-0.7c-1.2-0.4-2.2-1.2-3-2.2
	c-0.8-1-1.3-2.3-1.7-3.9c-0.3-1.6-0.5-3.6-0.5-6V16.6h-4.2v18.6c0,2.3,0.2,4.3,0.7,6.2c0.4,1.9,1.2,3.5,2.2,4.8c1,1.3,2.4,2.3,4,3.1
	c1.7,0.7,3.7,1.1,6.2,1.1c3,0,5.6-0.2,7.7-0.6c2.1-0.4,3.8-0.8,5-1.2V16.6h-4.2V45.6z"/>
<path class="st1" d="M131.5,34.7c-0.9-0.7-1.9-1.4-3.1-1.9c-1.2-0.5-2.4-1.1-3.7-1.6c-1.2-0.5-2.3-1-3.3-1.4c-1-0.4-1.8-0.9-2.4-1.4
	c-0.7-0.5-1.2-1.1-1.5-1.7c-0.3-0.6-0.5-1.4-0.5-2.3s0.2-1.7,0.6-2.3c0.4-0.6,0.9-1.1,1.5-1.5c0.6-0.4,1.4-0.7,2.2-0.9
	s1.7-0.3,2.7-0.3c2.3,0,4.1,0.2,5.3,0.6c1.2,0.4,2.1,0.8,2.6,1l1-3.7c-0.6-0.3-1.6-0.6-3.1-1c-1.5-0.4-3.3-0.6-5.6-0.6
	c-3.5,0-6.3,0.8-8.4,2.5c-2,1.7-3,3.8-3,6.5c0,1.4,0.3,2.6,0.8,3.6c0.5,1,1.2,1.8,2,2.5c0.9,0.7,1.8,1.3,2.9,1.9
	c1.1,0.5,2.3,1.1,3.5,1.6c1.5,0.6,2.8,1.2,3.9,1.7c1,0.5,1.9,1,2.5,1.5c0.6,0.5,1.1,1.1,1.4,1.7c0.3,0.6,0.4,1.4,0.4,2.3
	c0,1.9-0.8,3.2-2.3,4c-1.6,0.8-3.5,1.2-5.9,1.2c-1.3,0-2.5-0.1-3.5-0.3c-1-0.2-1.9-0.4-2.6-0.6c-0.7-0.2-1.3-0.4-1.7-0.6
	c-0.4-0.2-0.7-0.3-0.8-0.4l-1.1,3.8c0.5,0.3,1.5,0.6,3.1,1.1c1.5,0.5,3.8,0.7,6.7,0.7c3.9,0,6.9-0.8,9.2-2.3
	c2.2-1.5,3.4-3.8,3.4-6.8c0-1.6-0.3-2.9-0.8-3.9C133.1,36.4,132.4,35.5,131.5,34.7z"/>
<path class="st1" d="M157.5,46c-1.1,0.4-2.5,0.6-4.2,0.6c-1,0-2-0.1-2.8-0.3c-0.9-0.2-1.6-0.6-2.2-1.3c-0.6-0.6-1.1-1.5-1.4-2.7
	c-0.3-1.2-0.5-2.7-0.5-4.6V20.1h13.2v-3.5h-13.2V6.1l-4.2,0.8v30.5c0,2.2,0.2,4.1,0.5,5.8c0.3,1.6,0.9,3,1.8,4.1
	c0.8,1.1,1.9,1.9,3.3,2.4c1.4,0.5,3.1,0.8,5.2,0.8c1.7,0,3.4-0.2,4.9-0.7c1.5-0.5,2.5-0.9,3.1-1.3l-1-3.5
	C159.4,45.2,158.6,45.6,157.5,46z"/>
<path class="st2" d="M196,29.4c-0.8-0.9-1.8-1.6-2.8-2.1c-1.1-0.6-2.2-1-3.5-1.3c2-0.6,3.7-1.8,4.9-3.5c1.2-1.7,1.8-3.7,1.8-6.1
	c0-2.2-0.5-4-1.4-5.5c-1-1.5-2.3-2.7-3.9-3.5c-1.6-0.9-3.5-1.5-5.7-1.9c-2.2-0.4-4.4-0.6-6.8-0.6c-0.8,0-1.7,0-2.7,0.1
	c-1,0-1.9,0.1-2.9,0.2c-1,0.1-2,0.2-2.9,0.4c-0.9,0.1-1.8,0.3-2.6,0.5v42.7c0.6,0.2,1.4,0.3,2.3,0.5c0.9,0.1,1.8,0.3,2.8,0.4
	c1,0.1,2,0.2,2.9,0.3s1.8,0.1,2.5,0.1c7,0,12.1-1.1,15.4-3.3s5-5.4,5-9.6c0-1.8-0.2-3.3-0.7-4.5C197.5,31.4,196.8,30.3,196,29.4z
	 M171.9,9.1c0.7-0.1,1.6-0.2,2.7-0.3c1.1-0.1,2.4-0.1,4-0.1c2,0,3.8,0.1,5.4,0.4c1.6,0.3,3,0.7,4.2,1.4c1.2,0.6,2.1,1.5,2.7,2.5
	c0.6,1,1,2.2,1,3.7c0,1.6-0.3,2.9-0.9,4c-0.6,1-1.4,1.9-2.5,2.5c-1,0.6-2.3,1-3.7,1.3s-2.9,0.4-4.5,0.4h-8.4V9.1z M192.7,41.7
	c-0.9,1.2-2,2.1-3.4,2.8s-3,1.2-4.9,1.4c-1.9,0.3-3.8,0.4-5.7,0.4c-1.3,0-2.6-0.1-3.9-0.2c-1.3-0.1-2.2-0.2-2.9-0.3V28.4h9.2
	c2,0,3.7,0.1,5.3,0.4c1.6,0.3,3,0.7,4.1,1.4c1.1,0.7,2,1.6,2.6,2.7c0.6,1.1,0.9,2.6,0.9,4.3C194,39,193.6,40.5,192.7,41.7z"/>
<path class="st2" d="M227.4,46c-1.3,0.4-3.1,0.6-5.4,0.6c-4.1,0-7.1-1.1-9-3.3c-1.1-1.2-1.9-2.8-2.4-4.7h-4.5
	c0.1,0.5,0.2,0.9,0.3,1.4c0.6,2.1,1.6,3.9,2.9,5.5c1.3,1.5,3,2.7,5.1,3.6s4.5,1.3,7.4,1.3c2.2,0,4.1-0.2,5.8-0.7
	c1.6-0.5,2.8-0.9,3.4-1.2l-0.8-3.6C229.7,45.2,228.7,45.5,227.4,46z"/>
<path class="st2" d="M247.9,45.5c-0.4-0.4-0.7-0.9-0.9-1.5c-0.2-0.6-0.3-1.4-0.3-2.5V0l-4.2,0.8v41c0,1.6,0.2,2.9,0.5,3.9
	c0.4,1,0.9,1.9,1.6,2.6c0.7,0.7,1.6,1.2,2.6,1.5c1,0.3,2.3,0.5,3.7,0.5l0.6-3.5c-0.9-0.1-1.6-0.3-2.2-0.4
	C248.8,46.2,248.3,45.9,247.9,45.5z"/>
<path class="st2" d="M265.8,46.3c-0.6-0.2-1.1-0.4-1.5-0.8c-0.4-0.4-0.7-0.9-0.9-1.5c-0.2-0.6-0.3-1.4-0.3-2.5V0l-4.2,0.8v41
	c0,1.6,0.2,2.9,0.5,3.9c0.4,1,0.9,1.9,1.6,2.6c0.7,0.7,1.6,1.2,2.6,1.5c1,0.3,2.3,0.5,3.7,0.5l0.6-3.5
	C267.1,46.7,266.4,46.5,265.8,46.3z"/>
<path class="st1" d="M99.8,46c-1.3,0.4-3.1,0.6-5.4,0.6c-4.1,0-7.1-1.1-9-3.3c-1.1-1.2-1.9-2.8-2.4-4.7h-4.5
	c0.1,0.5,0.2,0.9,0.3,1.4c0.6,2.1,1.6,3.9,2.9,5.5c1.3,1.5,3,2.7,5.1,3.6s4.5,1.3,7.4,1.3c2.2,0,4.1-0.2,5.8-0.7
	c1.6-0.5,2.8-0.9,3.4-1.2l-0.8-3.6C102.1,45.2,101.2,45.5,99.8,46z"/>
<path class="st1" d="M102.2,19.8c-0.7-0.8-1.5-1.5-2.4-2c0.2-0.7,0.3-1.4,0.3-2.2c0-4.5-3.6-8.1-8.1-8.1c-4.5,0-8.1,3.6-8.1,8.1
	c0,1,0.2,2,0.5,2.9c-0.6,0.5-1.2,1-1.8,1.6c-1.3,1.5-2.4,3.3-3.3,5.4c-0.8,2.2-1.2,4.7-1.2,7.6c0,0.3,0,0.6,0,0.9h4.4h3.3h20
	c0-0.3,0.1-0.6,0.1-1c0-0.3,0-0.7,0-1C105.9,26.5,104.6,22.4,102.2,19.8z M92,10.7c2.7,0,4.8,2.2,4.8,4.8s-2.2,4.8-4.8,4.8
	s-4.8-2.2-4.8-4.8S89.3,10.7,92,10.7z M82.6,30.5c0.1-1.4,0.4-2.8,0.9-4.2c0.5-1.3,1.2-2.5,2-3.5c0.3-0.4,0.7-0.8,1.1-1.1
	c1.4,1.2,3.3,2,5.3,2c2.3,0,4.4-1,5.9-2.6c0.5,0.4,0.9,0.8,1.2,1.2c1.5,1.9,2.3,4.6,2.4,8.1H82.6z"/>
<path class="st2" d="M229.8,19.8c-2-2.2-4.7-3.5-7.8-3.8v-5h3.6V7.4h-10.8V11h3.6v5c-1.3,0.1-2.5,0.4-3.7,0.9
	c-1.7,0.7-3.3,1.8-4.6,3.2c-1.3,1.5-2.4,3.3-3.3,5.4c-0.8,2.2-1.2,4.7-1.2,7.6c0,0.3,0,0.6,0,0.9h27h0.6c0-0.3,0.1-0.6,0.1-1
	c0-0.3,0-0.7,0-1C233.4,26.5,232.2,22.4,229.8,19.8z M210.2,30.5c0.1-1.4,0.4-2.8,0.9-4.2c0.5-1.3,1.2-2.5,2-3.5
	c0.9-1,1.9-1.8,3.1-2.4c1.2-0.6,2.5-0.9,4-0.9c2.8,0,5,1,6.5,2.9c1.5,1.9,2.3,4.6,2.4,8.1H210.2z"/>
</svg>
